<svg id="svg" version="1.1" xmlns="http://www.w3.org/2000/svg" xmlns:xlink="http://www.w3.org/1999/xlink" width="400" height="400" viewBox="0, 0, 400,400"><g id="svgg"><path id="path0" d="M8.441 5.159 C 8.023 5.577,7.122 6.042,6.437 6.192 C 5.753 6.342,5.009 6.810,4.783 7.233 C 4.557 7.655,4.192 8.000,3.972 8.000 C 1.501 8.000,1.524 10.456,4.000 11.000 C 4.614 11.135,5.434 11.595,5.821 12.023 C 6.748 13.048,8.000 13.043,8.000 12.014 C 8.000 10.124,3.976 10.200,104.400 10.200 L 199.000 10.200 199.248 25.000 C 199.428 35.713,199.676 40.905,200.146 43.800 C 201.181 50.176,201.088 68.879,200.009 71.256 C 199.574 72.215,199.214 73.458,199.209 74.019 C 199.184 76.861,194.325 79.043,189.537 78.362 C 188.361 78.195,186.500 78.044,185.400 78.027 C 184.127 78.006,182.966 77.709,182.206 77.208 C 181.550 76.775,180.200 76.300,179.206 76.153 C 178.213 76.006,176.773 75.552,176.006 75.143 C 175.239 74.734,173.972 74.400,173.191 74.400 C 172.409 74.400,171.063 74.040,170.200 73.600 C 169.084 73.031,167.841 72.800,165.896 72.800 C 164.196 72.800,162.702 72.563,161.950 72.174 C 159.847 71.087,155.752 70.986,153.014 71.956 C 151.701 72.420,150.039 72.800,149.319 72.800 C 147.697 72.800,142.000 78.228,142.000 79.772 C 142.000 80.269,141.640 81.002,141.200 81.400 C 140.624 81.922,140.398 82.638,140.394 83.962 C 140.390 84.973,140.127 86.880,139.808 88.200 C 139.058 91.307,139.053 94.704,139.793 98.200 C 140.119 99.740,140.389 101.969,140.393 103.153 C 140.398 104.544,140.667 105.747,141.154 106.553 C 141.569 107.239,142.045 108.247,142.211 108.792 C 142.814 110.777,144.777 112.974,147.743 114.987 C 149.006 115.844,152.805 116.533,155.800 116.448 C 161.788 116.279,165.138 115.895,166.400 115.235 C 167.170 114.832,168.770 114.395,169.955 114.264 C 171.140 114.132,172.400 113.772,172.755 113.464 C 173.110 113.156,174.371 112.781,175.558 112.630 C 176.745 112.480,178.403 112.007,179.242 111.579 C 180.242 111.068,181.579 110.800,183.121 110.800 C 184.433 110.800,186.504 110.446,187.800 110.000 C 190.613 109.032,191.822 109.001,193.400 109.854 C 194.060 110.211,195.123 110.619,195.762 110.760 C 196.401 110.902,197.121 111.371,197.362 111.804 C 197.603 112.237,198.115 113.022,198.500 113.549 C 198.885 114.077,199.200 114.819,199.200 115.200 C 199.200 115.581,199.534 116.321,199.942 116.846 C 200.501 117.566,200.743 118.781,200.925 121.800 C 201.058 124.000,201.370 129.033,201.617 132.985 C 201.955 138.390,201.951 141.313,201.600 144.785 C 201.344 147.323,200.989 154.890,200.812 161.600 C 200.614 169.100,200.307 174.339,200.015 175.200 C 199.728 176.047,199.421 181.028,199.238 187.800 C 199.072 193.960,198.806 199.287,198.649 199.639 C 198.289 200.438,202.492 200.799,212.161 200.801 C 216.235 200.802,220.807 201.091,224.608 201.586 C 228.605 202.108,234.160 202.441,241.208 202.582 C 247.034 202.698,252.520 202.971,253.400 203.187 C 255.420 203.684,270.460 203.704,272.600 203.213 C 273.480 203.011,275.707 202.742,277.548 202.614 C 280.025 202.443,281.157 202.177,281.902 201.591 C 282.455 201.156,283.254 200.800,283.677 200.800 C 284.489 200.800,287.600 198.513,287.600 197.917 C 287.600 197.725,287.978 197.056,288.440 196.431 C 289.583 194.885,289.474 185.006,288.300 183.710 C 287.855 183.218,287.600 182.291,287.600 181.163 C 287.600 180.147,287.255 178.744,286.793 177.882 C 286.349 177.053,285.893 175.448,285.780 174.315 C 285.667 173.181,285.242 171.702,284.835 171.027 C 284.379 170.270,284.023 168.725,283.908 166.997 C 283.805 165.455,283.424 163.619,283.060 162.917 C 282.043 160.950,282.132 154.097,283.200 152.104 C 283.640 151.284,284.000 150.319,284.000 149.961 C 284.000 148.274,287.498 145.123,291.711 143.014 L 294.022 141.858 304.111 141.855 L 314.200 141.852 316.160 142.926 C 317.237 143.517,318.427 144.000,318.802 144.000 C 319.872 144.000,323.546 147.924,324.006 149.557 C 324.230 150.351,324.680 151.349,325.006 151.776 C 325.917 152.967,325.863 164.646,324.942 165.962 C 324.572 166.489,324.157 168.198,323.994 169.862 C 323.809 171.754,323.458 173.094,323.022 173.575 C 322.647 173.990,322.202 175.352,322.032 176.602 C 321.862 177.853,321.495 179.018,321.215 179.191 C 320.935 179.364,320.585 180.651,320.437 182.052 C 320.288 183.454,319.844 185.087,319.450 185.682 C 318.432 187.216,318.624 195.884,319.700 196.958 C 320.085 197.343,320.400 197.815,320.400 198.008 C 320.400 198.713,323.025 200.796,323.916 200.798 C 324.420 200.799,325.590 201.194,326.516 201.676 C 328.975 202.956,351.406 202.915,359.929 201.615 C 364.686 200.889,366.887 200.794,376.800 200.890 L 388.200 201.000 388.301 295.728 L 388.402 390.455 389.301 390.328 L 390.200 390.200 390.300 199.900 C 390.401 9.800,390.400 9.600,389.600 9.600 C 389.067 9.600,388.800 9.333,388.800 8.800 C 388.800 8.001,388.529 8.000,201.700 7.987 C 46.041 7.977,14.718 7.885,15.300 7.443 C 16.230 6.737,16.190 5.330,15.226 4.814 C 13.831 4.068,9.302 4.298,8.441 5.159 M137.300 194.640 C 135.504 195.453,136.856 196.400,139.813 196.400 C 142.665 196.400,143.955 195.822,143.072 194.938 C 142.751 194.618,137.904 194.367,137.300 194.640 M56.072 197.300 C 56.237 198.461,62.418 198.597,63.249 197.459 C 63.386 197.271,63.895 197.330,64.379 197.589 C 65.444 198.158,68.152 197.781,68.826 196.969 C 69.231 196.481,68.348 196.400,62.621 196.400 L 55.944 196.400 56.072 197.300 M77.200 196.976 C 77.200 198.083,82.855 198.875,83.492 197.857 C 84.292 196.578,83.934 196.400,80.565 196.400 C 77.902 196.400,77.200 196.520,77.200 196.976 M130.400 197.400 C 130.400 198.559,130.788 198.633,132.420 197.790 C 134.058 196.943,133.894 196.400,132.000 196.400 C 130.560 196.400,130.400 196.500,130.400 197.400 M151.850 196.719 C 151.563 197.184,152.105 197.872,152.800 197.925 C 153.130 197.950,154.480 198.075,155.800 198.204 C 159.324 198.548,161.600 198.144,161.600 197.175 C 161.600 196.359,152.340 195.926,151.850 196.719 M40.667 198.267 C 39.704 199.230,40.459 200.000,42.367 200.000 C 44.668 200.000,45.600 199.713,45.600 199.004 C 45.600 198.171,41.391 197.542,40.667 198.267 M87.836 198.342 C 87.439 198.984,88.057 200.048,88.750 199.914 C 89.603 199.750,89.592 198.248,88.737 198.083 C 88.373 198.013,87.967 198.129,87.836 198.342 M179.815 198.539 C 178.597 199.430,179.420 199.883,182.396 199.958 C 185.270 200.031,186.588 199.271,185.158 198.366 C 184.294 197.818,180.639 197.937,179.815 198.539 M27.500 199.862 C 25.489 200.428,26.778 201.639,29.263 201.519 C 31.612 201.406,33.417 200.000,31.215 200.000 C 30.822 200.000,29.983 199.925,29.350 199.832 C 28.718 199.740,27.885 199.753,27.500 199.862 M125.600 200.787 C 125.600 201.323,125.792 201.501,126.200 201.345 C 126.530 201.218,126.800 200.864,126.800 200.557 C 126.800 200.251,126.530 200.000,126.200 200.000 C 125.870 200.000,125.600 200.354,125.600 200.787 M11.200 202.620 C 11.200 203.630,11.226 203.639,13.900 203.462 C 19.333 203.105,19.899 201.600,14.600 201.600 C 11.222 201.600,11.200 201.607,11.200 202.620 M92.872 204.096 C 93.062 205.425,94.400 205.542,94.400 204.229 C 94.400 203.455,94.195 203.200,93.572 203.200 C 92.943 203.200,92.775 203.415,92.872 204.096 M124.000 204.233 C 124.000 204.582,124.214 204.795,124.475 204.708 C 125.217 204.461,125.340 203.600,124.633 203.600 C 124.285 203.600,124.000 203.885,124.000 204.233 M122.000 209.365 C 122.000 211.873,123.252 213.228,123.475 210.962 C 123.517 210.543,123.658 209.435,123.790 208.500 C 124.018 206.884,123.980 206.800,123.015 206.800 C 122.034 206.800,122.000 206.886,122.000 209.365 M196.643 209.138 C 196.367 211.153,196.396 218.172,196.676 217.100 C 196.776 216.715,197.205 216.400,197.629 216.400 C 198.345 216.400,198.400 216.075,198.400 211.825 C 198.400 207.583,198.345 207.254,197.643 207.307 C 197.064 207.350,196.829 207.780,196.643 209.138 M122.000 217.235 C 122.000 220.344,122.018 220.400,123.000 220.400 C 124.513 220.400,124.223 214.397,122.699 214.173 C 122.084 214.083,122.000 214.450,122.000 217.235 M93.075 215.858 C 92.351 216.583,92.792 219.600,93.622 219.600 C 94.351 219.600,94.430 219.389,94.322 217.731 C 94.208 215.980,93.706 215.227,93.075 215.858 M91.067 224.667 C 90.373 225.361,90.828 226.628,91.800 226.708 C 92.662 226.780,92.800 226.626,92.800 225.596 C 92.800 224.441,91.818 223.915,91.067 224.667 M123.880 224.653 C 123.046 225.488,123.603 228.000,124.623 228.000 C 125.579 228.000,125.638 227.889,125.523 226.303 C 125.406 224.684,124.630 223.904,123.880 224.653 M89.700 231.798 C 88.710 232.923,89.062 235.600,90.200 235.600 C 91.097 235.600,91.200 235.438,91.200 234.033 C 91.200 231.433,90.690 230.674,89.700 231.798 M125.783 231.707 C 125.136 233.410,125.417 235.402,126.321 235.531 C 127.188 235.653,127.237 235.542,127.150 233.646 C 127.063 231.723,126.226 230.537,125.783 231.707 M195.280 231.680 C 194.429 232.531,194.631 239.962,195.500 239.795 C 195.885 239.722,196.335 239.647,196.500 239.631 C 196.665 239.614,196.800 237.995,196.800 236.033 C 196.800 231.453,196.465 230.495,195.280 231.680 M89.344 248.601 C 89.004 249.488,90.224 250.736,90.835 250.125 C 91.457 249.503,91.123 248.235,90.294 248.075 C 89.911 248.001,89.484 248.238,89.344 248.601 M125.600 252.571 C 125.600 253.312,125.389 253.600,124.847 253.600 C 124.430 253.600,124.000 253.957,123.884 254.400 C 123.759 254.879,123.338 255.200,122.837 255.200 C 122.211 255.200,122.000 255.452,122.000 256.200 C 122.000 256.750,122.102 257.200,122.226 257.200 C 122.891 257.200,124.000 256.289,124.000 255.743 C 124.000 255.349,124.223 255.200,124.600 255.345 C 125.010 255.502,125.200 255.322,125.200 254.778 C 125.200 254.289,125.599 253.829,126.229 253.589 C 127.390 253.148,127.433 251.894,126.295 251.675 C 125.780 251.576,125.600 251.808,125.600 252.571 M90.800 252.557 C 90.800 253.081,91.612 253.600,92.433 253.600 C 92.635 253.600,92.800 253.240,92.800 252.800 C 92.800 252.213,92.533 252.000,91.800 252.000 C 91.212 252.000,90.800 252.230,90.800 252.557 M193.400 253.933 C 192.853 254.480,193.219 263.118,193.810 263.608 C 194.685 264.334,194.788 264.079,195.063 260.520 C 195.450 255.502,194.720 252.613,193.400 253.933 M94.400 255.720 C 94.400 256.389,95.211 257.200,95.880 257.200 C 96.168 257.200,96.400 256.754,96.400 256.200 C 96.400 255.400,96.200 255.200,95.400 255.200 C 94.846 255.200,94.400 255.432,94.400 255.720 M118.267 257.067 C 117.513 257.820,118.041 258.800,119.200 258.800 C 120.111 258.800,120.400 258.617,120.400 258.043 C 120.400 257.085,118.924 256.410,118.267 257.067 M98.000 257.757 C 98.000 258.281,98.812 258.800,99.633 258.800 C 99.835 258.800,100.000 258.440,100.000 258.000 C 100.000 257.413,99.733 257.200,99.000 257.200 C 98.412 257.200,98.000 257.430,98.000 257.757 M195.084 268.400 C 195.200 268.843,195.630 269.200,196.047 269.200 C 196.533 269.200,196.800 268.917,196.800 268.400 C 196.800 267.822,196.533 267.600,195.837 267.600 C 195.072 267.600,194.918 267.764,195.084 268.400 M196.400 270.882 C 196.400 271.627,197.251 272.816,197.621 272.587 C 197.830 272.458,198.177 272.813,198.391 273.376 C 198.905 274.729,200.517 274.832,200.328 273.500 C 200.246 272.922,199.878 272.554,199.300 272.472 C 198.744 272.393,198.400 272.067,198.400 271.619 C 198.400 271.163,198.029 270.822,197.400 270.702 C 196.850 270.597,196.400 270.678,196.400 270.882 M239.200 271.789 L 239.200 272.779 243.654 272.689 C 247.868 272.604,248.126 272.551,248.441 271.700 L 248.774 270.800 243.987 270.800 L 239.200 270.800 239.200 271.789 M230.300 272.680 C 228.903 273.036,229.468 274.400,231.013 274.400 C 232.233 274.400,233.322 273.543,232.749 273.032 C 232.403 272.724,230.948 272.515,230.300 272.680 M250.400 273.186 C 250.400 273.398,250.760 273.765,251.200 274.000 C 251.640 274.235,252.000 274.685,252.000 274.999 C 252.000 275.313,252.765 275.939,253.700 276.390 C 254.635 276.841,255.085 277.124,254.700 277.018 C 254.315 276.912,254.000 276.978,254.000 277.166 C 254.000 277.353,254.360 277.601,254.800 277.716 C 255.436 277.882,255.600 277.728,255.600 276.963 C 255.600 276.267,255.378 276.000,254.800 276.000 C 254.267 276.000,254.000 275.733,254.000 275.200 C 254.000 274.655,253.733 274.400,253.163 274.400 C 252.662 274.400,252.241 274.079,252.116 273.600 C 251.908 272.806,250.400 272.442,250.400 273.186 M201.772 275.100 C 201.924 276.158,203.600 276.275,203.600 275.228 C 203.600 274.620,203.344 274.400,202.635 274.400 C 201.945 274.400,201.699 274.599,201.772 275.100 M223.606 274.700 C 223.634 276.065,225.671 276.413,225.925 275.095 C 226.028 274.557,225.782 274.400,224.829 274.400 C 224.153 274.400,223.603 274.535,223.606 274.700 M207.206 276.300 C 207.245 278.190,214.566 278.827,215.735 277.043 L 216.418 276.000 211.809 276.000 C 209.274 276.000,207.203 276.135,207.206 276.300 M255.600 282.358 C 255.600 284.629,257.166 285.625,257.260 283.414 C 257.293 282.636,257.338 281.775,257.360 281.500 C 257.382 281.225,256.995 280.942,256.500 280.872 C 255.694 280.758,255.600 280.913,255.600 282.358 M255.600 296.442 C 255.600 297.075,255.874 297.620,256.268 297.771 C 257.104 298.092,257.534 297.437,257.298 296.202 C 257.033 294.814,255.600 295.017,255.600 296.442 M254.229 301.029 C 253.883 301.374,253.600 301.803,253.600 301.982 C 253.600 302.161,253.240 302.401,252.800 302.516 C 252.360 302.631,252.000 302.991,252.000 303.316 C 252.000 303.641,251.640 304.001,251.200 304.116 C 250.083 304.408,250.115 306.000,251.237 306.000 C 251.725 306.000,252.158 305.681,252.274 305.237 C 252.384 304.817,252.817 304.384,253.237 304.274 C 253.681 304.158,254.000 303.725,254.000 303.237 C 254.000 302.667,254.255 302.400,254.800 302.400 C 255.387 302.400,255.600 302.133,255.600 301.400 C 255.600 300.252,255.132 300.125,254.229 301.029 M205.619 302.354 C 205.300 302.570,204.915 302.671,204.764 302.578 C 204.403 302.355,203.419 303.552,203.718 303.851 C 203.982 304.115,213.560 304.173,213.821 303.912 C 215.043 302.691,207.295 301.218,205.619 302.354 M220.400 304.760 C 220.400 305.821,220.809 306.013,222.488 305.741 C 224.521 305.411,224.146 304.189,221.973 304.060 C 220.640 303.982,220.400 304.089,220.400 304.760 M229.067 305.867 C 228.376 306.557,228.833 307.600,229.826 307.600 C 231.120 307.600,232.498 306.883,232.184 306.373 C 232.052 306.161,231.777 306.091,231.572 306.217 C 231.368 306.344,231.200 306.257,231.200 306.024 C 231.200 305.561,229.497 305.436,229.067 305.867 M196.935 307.700 C 196.257 308.786,196.432 309.400,197.418 309.400 C 198.223 309.400,198.400 309.201,198.400 308.300 C 198.400 307.144,197.510 306.780,196.935 307.700 M237.700 307.465 C 235.993 308.154,237.259 309.200,239.800 309.200 C 242.076 309.200,242.400 309.106,242.400 308.450 C 242.400 307.454,239.324 306.810,237.700 307.465 M194.848 315.200 C 194.778 317.520,194.809 317.600,195.788 317.600 C 196.758 317.600,196.800 317.501,196.800 315.200 C 196.800 312.947,196.742 312.800,195.860 312.800 C 194.985 312.800,194.915 312.968,194.848 315.200 M195.004 338.500 C 194.536 341.117,195.292 343.953,196.247 343.161 C 197.207 342.364,197.009 337.200,196.018 337.200 C 195.450 337.200,195.173 337.556,195.004 338.500 M196.446 355.126 C 196.397 357.818,196.861 359.200,197.814 359.200 C 198.269 359.200,198.400 358.617,198.400 356.600 C 198.400 354.300,198.311 354.000,197.629 354.000 C 197.205 354.000,196.776 353.685,196.676 353.300 C 196.575 352.915,196.472 353.737,196.446 355.126 M198.400 370.217 C 198.400 373.704,199.816 375.009,200.207 371.883 C 200.539 369.227,200.212 368.000,199.173 368.000 C 198.502 368.000,198.400 368.292,198.400 370.217 M200.500 383.467 C 199.891 383.710,199.809 387.835,200.407 388.204 C 200.630 388.342,200.722 388.602,200.611 388.782 C 200.500 388.962,200.666 389.323,200.981 389.584 C 201.702 390.182,202.114 388.369,201.926 385.430 C 201.802 383.496,201.492 383.070,200.500 383.467 " stroke="none" fill="#d3647c" fill-rule="evenodd"></path><path id="path1" d="M11.117 10.362 C 9.861 10.497,8.601 10.839,8.317 11.123 C 7.773 11.667,7.276 198.152,7.808 201.900 C 8.109 204.021,11.200 204.659,11.200 202.600 L 11.200 201.600 19.000 201.600 C 26.533 201.600,26.800 201.573,26.800 200.800 C 26.800 199.854,26.481 199.889,34.267 199.993 L 40.335 200.074 40.467 199.137 C 40.597 198.220,42.872 197.847,45.200 198.362 C 45.530 198.435,48.160 198.473,51.045 198.447 L 56.289 198.400 56.098 197.400 L 55.907 196.400 69.918 196.400 C 84.403 196.400,84.402 196.400,83.438 197.944 C 83.160 198.389,83.669 198.462,86.249 198.344 C 89.304 198.204,89.399 198.227,89.352 199.100 C 89.319 199.730,89.529 200.000,90.052 200.000 C 90.533 200.000,90.800 200.285,90.800 200.800 C 90.800 201.387,91.067 201.600,91.800 201.600 C 92.533 201.600,92.800 201.813,92.800 202.400 C 92.800 202.935,93.067 203.200,93.605 203.200 C 94.386 203.200,94.409 203.442,94.382 211.400 C 94.357 219.246,94.322 219.600,93.578 219.600 C 92.865 219.600,92.800 219.901,92.800 223.225 C 92.800 226.755,92.776 226.847,91.900 226.725 C 91.007 226.601,91.001 226.637,91.104 231.100 L 91.209 235.600 90.204 235.600 L 89.200 235.600 89.200 241.932 C 89.200 248.241,89.203 248.263,90.100 248.232 C 90.927 248.203,90.990 248.353,90.880 250.100 C 90.766 251.901,90.813 252.000,91.780 252.000 C 92.724 252.000,92.800 252.135,92.800 253.825 L 92.800 255.649 94.600 255.379 C 96.343 255.118,96.400 255.142,96.400 256.155 C 96.400 257.127,96.526 257.200,98.200 257.200 C 99.733 257.200,100.000 257.319,100.000 258.000 C 100.000 258.776,100.267 258.800,108.972 258.800 L 117.944 258.800 118.072 257.900 C 118.187 257.088,118.387 257.013,120.100 257.133 C 121.911 257.260,122.000 257.217,122.000 256.233 C 122.000 255.451,122.204 255.200,122.837 255.200 C 123.338 255.200,123.759 254.879,123.884 254.400 C 124.000 253.957,124.430 253.600,124.847 253.600 C 125.393 253.600,125.600 253.312,125.600 252.553 C 125.600 251.704,125.751 251.546,126.400 251.716 C 127.181 251.920,127.200 251.728,127.200 243.763 C 127.200 235.825,127.178 235.600,126.387 235.600 C 125.333 235.600,125.092 234.899,125.483 232.967 C 126.080 230.017,125.702 228.000,124.553 228.000 L 123.552 228.000 123.831 224.200 L 124.110 220.400 123.055 220.400 L 122.000 220.400 122.000 213.600 L 122.000 206.800 123.000 206.800 C 123.900 206.800,124.000 206.640,124.000 205.200 C 124.000 203.867,124.133 203.600,124.800 203.600 C 125.481 203.600,125.600 203.333,125.600 201.800 C 125.600 200.467,125.756 200.000,126.200 200.000 C 126.925 200.000,127.003 201.051,126.300 201.335 C 126.001 201.456,126.082 201.550,126.500 201.568 C 126.944 201.588,127.200 201.307,127.200 200.800 C 127.200 200.213,127.467 200.000,128.200 200.000 C 128.933 200.000,129.200 199.787,129.200 199.200 C 129.200 198.756,129.467 198.400,129.800 198.400 C 130.173 198.400,130.400 198.022,130.400 197.400 C 130.400 196.417,130.453 196.400,133.600 196.400 C 136.473 196.400,136.800 196.323,136.800 195.643 C 136.800 194.447,138.919 194.044,141.982 194.656 C 142.980 194.856,143.221 195.078,143.069 195.656 C 142.858 196.464,143.735 196.512,156.700 196.401 C 161.332 196.362,161.600 196.403,161.600 197.152 C 161.600 197.656,161.272 198.008,160.700 198.118 C 160.205 198.213,164.210 198.337,169.600 198.393 C 174.990 198.449,179.580 198.441,179.800 198.376 C 182.477 197.584,185.779 198.074,185.479 199.218 C 185.225 200.190,198.056 200.464,198.673 199.500 C 198.849 199.225,199.116 193.960,199.267 187.800 C 199.434 180.944,199.724 176.057,200.015 175.200 C 200.307 174.339,200.614 169.100,200.812 161.600 C 200.989 154.890,201.344 147.323,201.600 144.785 C 201.951 141.313,201.955 138.390,201.617 132.985 C 201.370 129.033,201.058 124.000,200.925 121.800 C 200.743 118.781,200.501 117.566,199.942 116.846 C 199.534 116.321,199.200 115.581,199.200 115.200 C 199.200 114.819,198.885 114.077,198.500 113.549 C 198.115 113.022,197.603 112.237,197.362 111.804 C 197.121 111.371,196.401 110.902,195.762 110.760 C 195.123 110.619,194.060 110.211,193.400 109.854 C 191.822 109.001,190.613 109.032,187.800 110.000 C 186.504 110.446,184.433 110.800,183.121 110.800 C 181.579 110.800,180.242 111.068,179.242 111.579 C 178.403 112.007,176.745 112.480,175.558 112.630 C 174.371 112.781,173.110 113.156,172.755 113.464 C 172.400 113.772,171.140 114.132,169.955 114.264 C 168.770 114.395,167.170 114.832,166.400 115.235 C 165.138 115.895,161.788 116.279,155.800 116.448 C 152.805 116.533,149.006 115.844,147.743 114.987 C 144.777 112.974,142.814 110.777,142.211 108.792 C 142.045 108.247,141.569 107.239,141.154 106.553 C 140.667 105.747,140.398 104.544,140.393 103.153 C 140.389 101.969,140.119 99.740,139.793 98.200 C 139.053 94.704,139.058 91.307,139.808 88.200 C 140.127 86.880,140.390 84.973,140.394 83.962 C 140.398 82.638,140.624 81.922,141.200 81.400 C 141.640 81.002,142.000 80.269,142.000 79.772 C 142.000 78.228,147.697 72.800,149.319 72.800 C 150.039 72.800,151.701 72.420,153.014 71.956 C 155.752 70.986,159.847 71.087,161.950 72.174 C 162.702 72.563,164.196 72.800,165.896 72.800 C 167.841 72.800,169.084 73.031,170.200 73.600 C 171.063 74.040,172.409 74.400,173.191 74.400 C 173.972 74.400,175.239 74.734,176.006 75.143 C 176.773 75.552,178.213 76.006,179.206 76.153 C 180.200 76.300,181.550 76.775,182.206 77.208 C 182.966 77.709,184.127 78.006,185.400 78.027 C 186.500 78.044,188.361 78.195,189.537 78.362 C 194.325 79.043,199.184 76.861,199.209 74.019 C 199.214 73.458,199.574 72.215,200.009 71.256 C 201.088 68.879,201.181 50.176,200.146 43.800 C 199.676 40.905,199.428 35.713,199.248 25.000 L 199.000 10.200 106.200 10.158 C 55.160 10.135,12.372 10.227,11.117 10.362 M296.800 141.970 C 291.078 142.400,284.000 146.819,284.000 149.961 C 284.000 150.319,283.640 151.284,283.200 152.104 C 282.132 154.097,282.043 160.950,283.060 162.917 C 283.424 163.619,283.805 165.455,283.908 166.997 C 284.023 168.725,284.379 170.270,284.835 171.027 C 285.242 171.702,285.667 173.181,285.780 174.315 C 285.893 175.448,286.349 177.053,286.793 177.882 C 287.255 178.744,287.600 180.147,287.600 181.163 C 287.600 182.291,287.855 183.218,288.300 183.710 C 289.474 185.006,289.583 194.885,288.440 196.431 C 287.978 197.056,287.600 197.725,287.600 197.917 C 287.600 198.513,284.489 200.800,283.677 200.800 C 283.254 200.800,282.455 201.156,281.902 201.591 C 281.157 202.177,280.025 202.443,277.548 202.614 C 275.707 202.742,273.480 203.011,272.600 203.213 C 270.460 203.704,255.421 203.684,253.400 203.188 C 252.520 202.971,247.120 202.704,241.400 202.593 C 234.826 202.467,228.646 202.108,224.600 201.619 C 220.606 201.137,214.478 200.777,208.300 200.663 L 198.400 200.480 198.400 208.440 C 198.400 216.072,198.368 216.400,197.618 216.400 C 196.405 216.400,196.250 218.305,196.552 229.486 C 196.737 236.335,196.692 239.616,196.413 239.650 C 196.186 239.678,195.775 239.723,195.500 239.750 C 195.111 239.790,194.997 242.882,194.987 253.700 L 194.974 267.600 195.904 267.600 C 196.734 267.600,196.822 267.763,196.717 269.100 C 196.616 270.394,196.724 270.618,197.500 270.728 C 198.065 270.808,198.400 271.133,198.400 271.600 C 198.400 272.067,198.735 272.392,199.300 272.472 C 199.878 272.554,200.246 272.922,200.328 273.500 C 200.436 274.259,200.702 274.400,202.028 274.400 C 203.333 274.400,203.600 274.536,203.600 275.200 C 203.600 275.979,203.867 276.000,213.827 276.000 C 223.872 276.000,224.049 275.986,223.800 275.200 C 223.561 274.448,223.728 274.400,226.573 274.400 C 229.333 274.400,229.600 274.330,229.600 273.600 C 229.600 272.688,229.484 272.705,235.100 272.796 L 239.200 272.862 239.200 271.831 L 239.200 270.800 243.990 270.800 L 248.780 270.800 248.400 271.800 C 248.027 272.782,248.056 272.800,249.963 272.800 C 251.570 272.800,251.943 272.938,252.116 273.600 C 252.241 274.079,252.662 274.400,253.163 274.400 C 253.733 274.400,254.000 274.655,254.000 275.200 C 254.000 275.733,254.267 276.000,254.800 276.000 C 255.510 276.000,255.600 276.267,255.600 278.372 C 255.600 280.470,255.697 280.759,256.435 280.872 C 257.249 280.997,257.437 285.100,257.206 297.727 C 257.203 297.907,256.840 297.940,256.400 297.800 C 255.660 297.565,255.600 297.728,255.600 299.973 C 255.600 302.133,255.512 302.400,254.800 302.400 C 254.255 302.400,254.000 302.667,254.000 303.237 C 254.000 303.725,253.681 304.158,253.237 304.274 C 252.817 304.384,252.381 304.830,252.267 305.266 C 252.084 305.964,251.842 306.025,250.230 305.784 C 248.547 305.531,248.400 305.577,248.400 306.355 C 248.400 307.154,248.186 307.203,244.500 307.254 C 242.355 307.284,241.005 307.387,241.500 307.482 C 243.788 307.923,242.524 309.200,239.800 309.200 C 237.259 309.200,235.993 308.154,237.700 307.465 C 238.209 307.260,233.097 306.995,232.000 307.170 C 231.670 307.222,230.790 307.363,230.044 307.483 C 228.746 307.691,228.696 307.654,228.895 306.614 L 229.103 305.526 224.852 305.663 C 220.718 305.796,220.597 305.775,220.474 304.913 L 220.348 304.026 210.174 304.043 C 200.404 304.059,200.000 304.090,200.000 304.830 C 200.000 305.333,199.723 305.600,199.200 305.600 C 198.510 305.600,198.400 305.867,198.400 307.532 C 198.400 309.278,198.313 309.460,197.500 309.432 C 196.756 309.406,196.577 309.642,196.467 310.797 C 196.395 311.565,196.125 312.327,195.867 312.490 C 195.561 312.685,195.641 312.790,196.100 312.794 C 196.688 312.799,196.800 313.183,196.800 315.200 C 196.800 317.493,196.756 317.600,195.800 317.600 L 194.800 317.600 194.846 328.100 C 194.872 333.875,194.975 338.285,195.076 337.900 C 195.176 337.515,195.605 337.200,196.029 337.200 C 196.799 337.200,197.256 342.210,196.551 342.915 C 195.583 343.884,196.580 354.000,197.643 354.000 C 198.357 354.000,198.400 354.400,198.400 361.000 C 198.400 367.632,198.440 368.000,199.167 368.000 C 200.269 368.000,200.297 368.252,200.082 376.305 L 199.886 383.611 200.843 383.505 C 201.790 383.401,201.800 383.437,201.763 386.900 L 201.727 390.400 295.064 390.400 L 388.402 390.400 388.301 295.700 L 388.200 201.000 376.800 200.890 C 366.887 200.794,364.686 200.889,359.929 201.615 C 351.406 202.915,328.975 202.956,326.516 201.676 C 325.590 201.194,324.420 200.799,323.916 200.798 C 323.025 200.796,320.400 198.713,320.400 198.008 C 320.400 197.815,320.085 197.343,319.700 196.958 C 318.624 195.884,318.432 187.216,319.450 185.682 C 319.844 185.087,320.288 183.454,320.437 182.052 C 320.585 180.651,320.935 179.364,321.215 179.191 C 321.495 179.018,321.862 177.853,322.032 176.602 C 322.202 175.352,322.647 173.990,323.022 173.575 C 323.458 173.094,323.809 171.754,323.994 169.862 C 324.157 168.198,324.572 166.489,324.942 165.962 C 325.863 164.646,325.917 152.967,325.006 151.776 C 324.680 151.349,324.230 150.351,324.006 149.557 C 323.546 147.924,319.872 144.000,318.802 144.000 C 318.427 144.000,317.282 143.555,316.260 143.011 C 314.161 141.895,304.601 141.384,296.800 141.970 M63.200 197.600 C 63.200 197.820,63.605 197.997,64.100 197.994 C 64.828 197.989,64.885 197.914,64.400 197.600 C 63.624 197.099,63.200 197.099,63.200 197.600 M253.600 277.200 C 253.600 277.777,253.851 277.987,254.500 277.954 C 255.177 277.919,255.227 277.862,254.700 277.724 C 254.315 277.624,254.000 277.380,254.000 277.183 C 254.000 276.986,254.315 276.926,254.700 277.050 C 255.291 277.240,255.306 277.208,254.800 276.844 C 253.917 276.209,253.600 276.303,253.600 277.200 " stroke="none" fill="#1c1c1c" fill-rule="evenodd"></path></g></svg>